# xmcd
#
# Track frame offsets: 
#        150
#        14913
#        31905
#        50952
#        65836
#        79631
#        93947
#        113161
#        129107
#        146243
#
# Disc length: 2178 seconds
#
# Revision: 1
# Processed by: cddbd v1.5.2PL0 Copyright (c) Steve Scherf et al.
# Submitted via: ExactAudioCopy v0.99pb5
#
DISCID=8d08800a
DTITLE=Lula - Swing Swing
DYEAR=2008
DGENRE=Pop
TTITLE0=Bizarre Love Triangle
TTITLE1=Miracle
TTITLE2=Quando Quando Quando
TTITLE3=I Can't Tell You Why
TTITLE4=Kiss Me
TTITLE5=Last Christmas
TTITLE6=Tonight (feat. Wittaya Supcharoen)
TTITLE7=Right Here Waiting
TTITLE8=When I Come Around
TTITLE9=Broken Heart
EXTD=
EXTT0=
EXTT1=
EXTT2=
EXTT3=
EXTT4=
EXTT5=
EXTT6=
EXTT7=
EXTT8=
EXTT9=
PLAYORDER=
